<?xml version="1.0" encoding="utf-8"?>
<!-- Generator: Adobe Illustrator 27.8.1, SVG Export Plug-In . SVG Version: 6.00 Build 0)  -->
<svg version="1.1" id="Layer_1" xmlns="http://www.w3.org/2000/svg" xmlns:xlink="http://www.w3.org/1999/xlink" x="0px" y="0px"
	 viewBox="0 0 4060 1648" style="enable-background:new 0 0 4060 1648;" xml:space="preserve">
<style type="text/css">
	.st0{clip-path:url(#SVGID_00000026881849603755601260000004308300637761061033_);}
	.st1{clip-path:url(#SVGID_00000034073528412890853640000006866365415529141411_);fill:#1434CB;}
</style>
<g id="Artwork_1_00000011750795705616144850000012041293009842890128_">
	<g>
		<defs>
			<rect id="SVGID_1_" y="168.4" width="4060" height="1311.2"/>
		</defs>
		<clipPath id="SVGID_00000158711820583026946310000008881741088872911773_">
			<use xlink:href="#SVGID_1_"  style="overflow:visible;"/>
		</clipPath>
		<g style="clip-path:url(#SVGID_00000158711820583026946310000008881741088872911773_);">
			<defs>
				<rect id="SVGID_00000016762094072526704770000006964965046802893989_" y="168.4" width="4060" height="1311.2"/>
			</defs>
			<clipPath id="SVGID_00000010302057721375535810000004647608058625827976_">
				<use xlink:href="#SVGID_00000016762094072526704770000006964965046802893989_"  style="overflow:visible;"/>
			</clipPath>
			<path style="clip-path:url(#SVGID_00000010302057721375535810000004647608058625827976_);fill:#1434CB;" d="M1541.5,191.6
				L1010,1459.8H663.2L401.6,447.7c-15.9-62.3-29.7-85.2-78-111.4C244.8,293.5,114.6,253.3,0,228.4l7.8-36.9H566
				c71.2,0,135.1,47.4,151.3,129.3l138.1,733.9l341.4-863.2H1541.5z M2900.3,1045.7c1.4-334.7-462.8-353.2-459.6-502.7
				c1-45.5,44.3-93.9,139.2-106.2c47-6.2,176.5-10.9,323.4,56.8l57.6-268.9c-78.9-28.6-180.5-56.2-306.9-56.2
				c-324.3,0-552.5,172.4-554.4,419.2c-2.1,182.6,162.9,284.5,287.2,345.1c127.9,62.1,170.8,102,170.3,157.6
				c-0.9,85.1-102,122.6-196.4,124.1c-164.9,2.5-260.6-44.6-336.9-80.1l-59.5,277.8c76.7,35.2,218.1,65.9,364.8,67.4
				C2673.8,1479.6,2899.2,1309.4,2900.3,1045.7 M3756.6,1459.8H4060L3795.1,191.6h-280.1c-63,0-116.1,36.7-139.6,93l-492.3,1175.2
				h344.5l68.4-189.4H3717L3756.6,1459.8z M3390.5,1010.4l172.7-476.2l99.4,476.2H3390.5z M2010.2,191.6L1739,1459.8h-328.1
				l271.4-1268.2H2010.2z"/>
		</g>
	</g>
</g>
</svg>
